<?xml version="1.0" encoding="UTF-8"?>
<svg id="Layer_2" data-name="Layer 2" xmlns="http://www.w3.org/2000/svg" viewBox="0 0 1538.96 1080">
  <g id="Layer_1-2" data-name="Layer 1">
    <g>
      <path d="M1531.82,416.78l-103.55-76.77c-7.14-5.36-19.64-3.57-24.99,3.57-5.36,7.14-3.57,19.64,3.57,24.99l83.91,62.49-83.91,62.49c-7.14,5.36-8.93,17.85-3.57,24.99,3.57,5.36,8.93,7.14,14.28,7.14,3.57,0,7.14-1.79,10.71-3.57l103.55-76.77c3.57-3.57,7.14-8.93,7.14-14.28s-1.79-10.71-7.14-14.28Z"/>
      <path d="M1287.02,0H248.7c-12.45,0-22.55,10.09-22.55,22.55v675.19c0,12.45,10.1,22.55,22.55,22.55h1038.33c12.45,0,22.55-10.1,22.55-22.55V22.55c0-12.45-10.1-22.55-22.55-22.55ZM1261.28,672H274.44V48.29h986.84v623.71Z"/>
      <path d="M518.41,858.68H248.69c-10.93,0-19.84,8.9-19.84,19.84v181.65c0,10.93,8.9,19.84,19.84,19.84h269.73c10.93,0,19.84-8.9,19.84-19.84v-181.65c0-10.93-8.9-19.84-19.84-19.84ZM495.37,1037.14h-223.63v-135.57h223.63v135.57Z"/>
      <path d="M901.28,858.68h-269.7c-10.93,0-19.84,8.9-19.84,19.84v181.65c0,10.93,8.9,19.84,19.84,19.84h269.7c10.95,0,19.86-8.9,19.86-19.84v-181.65c0-10.93-8.9-19.84-19.86-19.84ZM878.25,1037.14h-223.65v-135.57h223.65v135.57Z"/>
      <path d="M1287.01,858.68h-269.7c-10.93,0-19.84,8.9-19.84,19.84v181.65c0,10.93,8.9,19.84,19.84,19.84h269.7c10.95,0,19.86-8.9,19.86-19.84v-181.65c0-10.93-8.9-19.84-19.86-19.84ZM1263.98,1037.14h-223.65v-135.57h223.65v135.57Z"/>
      <path d="M135.69,343.58c-5.36-7.14-17.85-8.93-24.99-3.57L7.14,416.78c-3.57,3.57-7.14,8.93-7.14,14.28s1.79,10.71,7.14,14.28l103.55,76.77c3.57,1.79,7.14,3.57,10.71,3.57,5.36,0,10.71-3.57,14.28-7.14,5.36-7.14,3.57-19.64-3.57-25l-83.91-62.49,83.91-62.49c7.14-5.36,8.93-17.85,3.57-24.99Z"/>
    </g>
  </g>
</svg>