<?xml version="1.0" encoding="UTF-8"?>
<svg id="Layer_2" data-name="Layer 2" xmlns="http://www.w3.org/2000/svg" viewBox="0 0 24 24">
  <defs>
    <style>
      .cls-1 {
        fill: none;
      }
    </style>
  </defs>
  <g id="Layer_1-2" data-name="Layer 1">
    <g>
      <rect class="cls-1" width="24" height="24"/>
      <g>
        <path d="M19.29,4.71v10.41H4.71V4.71h14.57M19.67,4H4.33c-.18,0-.33.15-.33.33v11.17c0,.18.15.33.33.33h15.33c.18,0,.33-.15.33-.33V4.33c0-.18-.15-.33-.33-.33h0Z"/>
        <g>
          <path d="M17.81,16.56c-.11,0-.22.05-.29.13-.05.07-.07.16-.06.26.01.1.06.18.13.23l1.47,1.09-1.47,1.09c-.07.05-.11.13-.13.23-.01.1,0,.19.06.26.06.09.16.14.28.14.07,0,.14-.03.21-.07l1.86-1.38s.14-.15.14-.28-.05-.22-.14-.28l-1.85-1.37c-.06-.04-.13-.06-.2-.06h0Z"/>
          <path d="M6.19,16.56c-.07,0-.14.02-.2.06l-1.86,1.38s-.14.15-.14.28.05.22.14.28l1.86,1.38c.07.03.13.07.2.07.13,0,.24-.1.28-.14.05-.07.07-.16.06-.26-.01-.1-.06-.18-.13-.23l-1.47-1.09,1.47-1.09c.14-.11.18-.35.07-.49-.06-.09-.18-.13-.29-.13h0Z"/>
        </g>
      </g>
    </g>
  </g>
</svg>