<svg width="1080" height="1080" xmlns="http://www.w3.org/2000/svg" style="vector-effect: non-scaling-stroke;" stroke="null" data-name="Layer 2">

 <g stroke="null">
  <title stroke="null">Layer 1</title>
  <g stroke="null" data-name="Layer 1" id="Layer_1-2">
   <g stroke="null" id="svg_1">
    <rect stroke="null" x="4.99823" y="4.99823" id="svg_2" fill="none" height="1070.00357" width="1070.00357" class="cls-1"/>
    <g stroke="null" id="svg_3">
     <path stroke="null" id="svg_4" d="m865.01361,214.98643l0,464.11403l-650.02718,0l0,-464.11403l649.58131,0m17.38763,-31.65428l-683.91068,0c-8.02502,0 -14.71255,6.68753 -14.71255,14.71255l0,497.99747c0,8.02509 6.68753,14.71259 14.71255,14.71259l683.46475,0c8.02509,0 14.71259,-6.6875 14.71259,-14.71259l0,-497.99747c0,-8.02502 -6.6875,-14.71255 -14.71259,-14.71255l0,0l0.44592,0z"/>
     <g stroke="null" id="svg_5">
      <path stroke="null" id="svg_6" d="m799.03003,743.30066c-4.90411,0 -9.80829,2.22919 -12.9292,5.7959c-2.22925,3.12085 -3.12079,7.13336 -2.67505,11.59174c0.4458,4.45831 2.67505,8.02496 5.79596,10.25415l65.5376,48.59601l-65.5376,48.59601c-3.12091,2.22919 -4.90424,5.79584 -5.79596,10.25421c-0.44574,4.45837 0,8.47089 2.67505,11.59167c2.67505,4.01257 7.13336,6.2417 12.4834,6.2417c3.12085,0 6.2417,-1.33752 9.36255,-3.12085l82.92523,-61.52521s6.2417,-6.6875 6.2417,-12.4834s-2.22919,-9.80829 -6.2417,-12.4834l-82.47937,-61.07935c-2.67505,-1.78333 -5.79596,-2.67505 -8.91675,-2.67505l0,0l-0.44586,0.44586z"/>
      <path stroke="null" id="svg_7" d="m280.97,743.30066c-3.12088,0 -6.2417,0.89172 -8.91669,2.67511l-82.92529,61.52509s-6.2417,6.68756 -6.2417,12.48352s2.22917,9.80829 6.2417,12.48328l82.92529,61.52527c3.12082,1.3374 5.79581,3.12079 8.91669,3.12079c5.79584,0 10.70001,-4.45837 12.48337,-6.2417c2.22916,-3.12085 3.12085,-7.13342 2.67502,-11.59174c-0.44586,-4.45825 -2.67502,-8.02496 -5.79587,-10.25421l-65.5377,-48.59589l65.5377,-48.59607c6.2417,-4.90417 8.02502,-15.60419 3.12085,-21.84595c-2.67502,-4.01239 -8.02505,-5.79578 -12.92923,-5.79578l0,0l0.44586,-0.89172z"/>
     </g>
    </g>
   </g>
  </g>
 </g>
</svg>