<?xml version="1.0" encoding="UTF-8"?>
<svg id="Layer_2" data-name="Layer 2" xmlns="http://www.w3.org/2000/svg" viewBox="0 0 1080 1080">
  <g id="Layer_1-2" data-name="Layer 1">
    <g>
      <path d="M308.4,63.21H46.53C20.88,63.21,0,84.1,0,109.78v136.1c0,25.68,20.88,46.57,46.53,46.57h261.86c25.66,0,46.53-20.89,46.53-46.57V109.78c0-25.68-20.87-46.57-46.53-46.57ZM306.81,244.29H48.12V111.37h258.69v132.92Z"/>
      <path d="M461.32,355.65h160.11c25.66,0,46.53-20.89,46.53-46.57V46.57c0-25.68-20.87-46.57-46.53-46.57h-160.11c-25.66,0-46.53,20.89-46.53,46.57v262.51c0,25.68,20.88,46.57,46.53,46.57ZM462.9,48.16h156.93v259.33h-156.93V48.16Z"/>
      <path d="M260.45,716.11c25.66,0,46.53-20.89,46.53-46.57v-262.51c0-25.68-20.87-46.57-46.53-46.57H100.34c-25.66,0-46.53,20.89-46.53,46.57v262.51c0,25.68,20.88,46.57,46.53,46.57h160.11ZM101.93,408.62h156.93v259.33H101.93v-259.33Z"/>
      <path d="M810.3,717.43h184.78c25.66,0,46.53-20.89,46.53-46.57v-234c0-25.68-20.87-46.57-46.53-46.57h-184.78c-25.66,0-46.53,20.89-46.53,46.57v234c0,25.68,20.87,46.57,46.53,46.57ZM811.89,438.45h181.6v230.82h-181.6v-230.82Z"/>
      <path d="M627.74,724.35h-172.37c-25.66,0-46.53,20.89-46.53,46.57v262.51c0,25.68,20.87,46.57,46.53,46.57h172.37c25.66,0,46.53-20.89,46.53-46.57v-262.51c0-25.68-20.87-46.57-46.53-46.57ZM626.15,1031.84h-169.2v-259.33h169.2v259.33Z"/>
      <path d="M813.27,336.44h178.74c25.66,0,46.53-20.89,46.53-46.57V46.57c0-25.68-20.87-46.57-46.53-46.57h-178.74c-25.66,0-46.53,20.89-46.53,46.57v243.29c0,25.68,20.87,46.57,46.53,46.57ZM814.86,48.16h175.56v240.11h-175.56V48.16Z"/>
      <path d="M662.39,411.18h-250.41c-25.66,0-46.53,20.89-46.53,46.57v161.07c0,25.68,20.88,46.57,46.53,46.57h250.41c25.66,0,46.53-20.89,46.53-46.57v-161.07c0-25.68-20.87-46.57-46.53-46.57ZM660.8,617.23h-247.24v-157.89h247.24v157.89Z"/>
      <path d="M1033.47,775.07h-261.87c-25.66,0-46.53,20.89-46.53,46.57v161.07c0,25.68,20.87,46.57,46.53,46.57h261.87c25.66,0,46.53-20.89,46.53-46.57v-161.07c0-25.68-20.87-46.57-46.53-46.57ZM1031.88,981.12h-258.69v-157.89h258.69v157.89Z"/>
      <path d="M308.4,775.07H46.53c-25.66,0-46.53,20.89-46.53,46.57v161.07c0,25.68,20.88,46.57,46.53,46.57h261.86c25.66,0,46.53-20.89,46.53-46.57v-161.07c0-25.68-20.87-46.57-46.53-46.57ZM306.81,981.12H48.12v-157.89h258.69v157.89Z"/>
    </g>
  </g>
</svg>