<?xml version="1.0" encoding="UTF-8"?>
<svg id="Layer_2" data-name="Layer 2" xmlns="http://www.w3.org/2000/svg" viewBox="0 0 1080 1080">
  <g id="Layer_1-2" data-name="Layer 1">
    <g>
      <path d="M1055.89,385.17H465.35c-13.32,0-24.11,9.63-24.11,21.51v266.81c0,11.88,10.79,21.51,24.11,21.51h590.54c13.32,0,24.11-9.63,24.11-21.51v-266.81c0-11.88-10.79-21.51-24.11-21.51ZM1031.83,646.83H489.41v-213.48h542.42v213.48Z"/>
      <path d="M19.13,695h327.84c10.56,0,19.13-9.63,19.13-21.51v-266.81c0-11.88-8.56-21.51-19.13-21.51H19.13c-10.56,0-19.13,9.63-19.13,21.51v266.81c0,11.88,8.56,21.51,19.13,21.51ZM48.17,433.35h269.75v213.48H48.17v-213.48Z"/>
      <path d="M21.74,309.83h579.62c12.01,0,21.74-9.63,21.74-21.51V21.51c0-11.88-9.73-21.51-21.74-21.51H21.74C9.73,0,0,9.63,0,21.51v266.81c0,11.88,9.73,21.51,21.74,21.51ZM48.17,48.18h526.76v213.48H48.17V48.18Z"/>
      <path d="M1057.51,0h-336.76c-12.42,0-22.49,9.63-22.49,21.51v266.81c0,11.88,10.07,21.51,22.49,21.51h336.76c12.42,0,22.49-9.63,22.49-21.51V21.51c0-11.88-10.07-21.51-22.49-21.51ZM1031.83,261.65h-285.41V48.18h285.41v213.48Z"/>
      <path d="M484.89,770.17H17.53c-9.68,0-17.53,9.63-17.53,21.51v266.81c0,11.88,7.85,21.51,17.53,21.51h467.36c9.68,0,17.53-9.63,17.53-21.51v-266.81c0-11.88-7.85-21.51-17.53-21.51ZM454.25,1031.82H48.17v-213.48h406.09v213.48Z"/>
      <path d="M1062.47,770.17h-467.36c-9.68,0-17.53,9.63-17.53,21.51v266.81c0,11.88,7.85,21.51,17.53,21.51h467.36c9.68,0,17.53-9.63,17.53-21.51v-266.81c0-11.88-7.85-21.51-17.53-21.51ZM1031.83,1031.82h-406.09v-213.48h406.09v213.48Z"/>
    </g>
  </g>
</svg>