<?xml version="1.0" encoding="UTF-8"?>
<svg id="Layer_2" data-name="Layer 2" xmlns="http://www.w3.org/2000/svg" viewBox="0 0 1080 1080">
  <g id="Layer_1-2" data-name="Layer 1">
    <g>
      <path d="M301.51,435.27H22.49c-12.42,0-22.49,10.07-22.49,22.49v599.74c0,12.42,10.07,22.49,22.49,22.49h279.01c12.42,0,22.49-10.07,22.49-22.49V457.77c0-12.42-10.07-22.49-22.49-22.49ZM275.83,1031.83H48.17V483.44h227.66v548.39Z"/>
      <path d="M679.5,0h-279.01c-12.42,0-22.49,10.07-22.49,22.49v550.95c0,12.42,10.07,22.49,22.49,22.49h279.01c12.42,0,22.49-10.07,22.49-22.49V22.49c0-12.42-10.07-22.49-22.49-22.49ZM653.83,547.76h-227.66V48.17h227.66v499.59Z"/>
      <path d="M679.5,649.48h-279.01c-12.42,0-22.49,10.07-22.49,22.49v385.53c0,12.42,10.07,22.49,22.49,22.49h279.01c12.42,0,22.49-10.07,22.49-22.49v-385.53c0-12.42-10.07-22.49-22.49-22.49ZM653.83,1031.83h-227.66v-334.18h227.66v334.18Z"/>
      <path d="M1057.51,810.05h-279.01c-12.42,0-22.49,10.07-22.49,22.49v224.97c0,12.42,10.07,22.49,22.49,22.49h279.01c12.42,0,22.49-10.07,22.49-22.49v-224.97c0-12.42-10.07-22.49-22.49-22.49ZM1031.83,1031.83h-227.66v-173.62h227.66v173.62Z"/>
      <path d="M1057.51,435.29h-279.01c-12.42,0-22.49,10.07-22.49,22.49v276.29c0,12.42,10.07,22.49,22.49,22.49h279.01c12.42,0,22.49-10.07,22.49-22.49v-276.29c0-12.42-10.07-22.49-22.49-22.49ZM1031.83,708.4h-227.66v-224.94h227.66v224.94Z"/>
      <path d="M1057.51,0h-279.01c-12.42,0-22.49,10.07-22.49,22.49v336.76c0,12.42,10.07,22.49,22.49,22.49h279.01c12.42,0,22.49-10.07,22.49-22.49V22.49c0-12.42-10.07-22.49-22.49-22.49ZM1031.83,333.58h-227.66V48.17h227.66v285.41Z"/>
      <path d="M301.51,0H22.49C10.07,0,0,10.07,0,22.49v336.76c0,12.42,10.07,22.49,22.49,22.49h279.01c12.42,0,22.49-10.07,22.49-22.49V22.49c0-12.42-10.07-22.49-22.49-22.49ZM275.83,333.58H48.17V48.17h227.66v285.41Z"/>
    </g>
  </g>
</svg>