<?xml version="1.0" encoding="UTF-8"?>
<svg id="Layer_2" data-name="Layer 2" xmlns="http://www.w3.org/2000/svg" viewBox="0 0 1080 1080">
  <g id="Layer_1-2" data-name="Layer 1">
    <g>
      <path d="M1057.51,0H457.76c-12.42,0-22.49,10.07-22.49,22.49v279.01c0,12.42,10.07,22.49,22.49,22.49h599.74c12.42,0,22.49-10.07,22.49-22.49V22.49C1080,10.07,1069.93,0,1057.51,0ZM1031.83,275.83H483.44s0-227.66,0-227.66h548.39v227.66Z"/>
      <path d="M1057.51,378h-408.62c-12.42,0-22.49,10.07-22.49,22.49v279.01c0,12.42,10.07,22.49,22.49,22.49h408.62c12.42,0,22.49-10.07,22.49-22.49v-279.01c0-12.42-10.07-22.49-22.49-22.49ZM1031.83,653.83h-357.27v-227.66h357.27v227.66Z"/>
      <path d="M1057.51,756h-408.62c-12.42,0-22.49,10.07-22.49,22.49v279.01c0,12.42,10.07,22.49,22.49,22.49h408.62c12.42,0,22.49-10.07,22.49-22.49v-279.01c0-12.42-10.07-22.49-22.49-22.49ZM1031.83,1031.83h-357.27v-227.66h357.27v227.66Z"/>
      <path d="M550.37,378H22.49c-12.42,0-22.49,10.07-22.49,22.49v657.01c0,12.42,10.07,22.49,22.49,22.49h527.88c12.42,0,22.49-10.07,22.49-22.49V400.49c0-12.42-10.07-22.49-22.49-22.49ZM524.7,1031.83H48.17V426.17h476.53v605.66Z"/>
      <path d="M22.49,324h336.76c12.42,0,22.49-10.07,22.49-22.49V22.49C381.75,10.07,371.67,0,359.25,0H22.49c-12.42,0-22.49,10.07-22.49,22.49v279.01c0,12.42,10.07,22.49,22.49,22.49ZM48.17,48.17h285.41s0,227.66,0,227.66H48.17V48.17Z"/>
    </g>
  </g>
</svg>