<?xml version="1.0" encoding="UTF-8"?>
<svg xmlns="http://www.w3.org/2000/svg" viewBox="0 0 1247.24 1247.24">
  <path fill-rule="evenodd" d="M180 180h887c48 0 88 40 88 88v711c0 48-40 88-88 88H180c-48 0-88-40-88-88V268c0-48 40-88 88-88Zm0 50c-30 0-56 26-56 56v675c0 30 26 56 56 56h887c30 0 56-26 56-56V286c0-30-26-56-56-56H180Z"/>
  <path d="M414 329.79h420a38 38 0 0 1 0 76H414a38 38 0 0 1 0-76Z"/>
  <path d="M517.45 547v153c0 17 18 28 33 21l180-90c15-7 16-28 1-36l-180-90c-15-8-34 4-34 21v21Z"/>
  <path d="M414 810.83h420a38 38 0 0 1 0 76H414a38 38 0 0 1 0-76Z"/>
</svg>
