<?xml version="1.0" encoding="UTF-8"?>
<svg id="Layer_2" data-name="Layer 2" xmlns="http://www.w3.org/2000/svg" viewBox="0 0 24 24">
  <defs>
    <style>
      .cls-1 {
        fill: none;
      }
    </style>
  </defs>
  <g id="Layer_1-2" data-name="Layer 1">
    <g>
      <rect class="cls-1" width="24" height="24"/>
      <g>
        <path d="M19.31,4H4.69c-.38,0-.69.31-.69.69v14.62c0,.38.31.69.69.69h14.62c.38,0,.69-.31.69-.69V4.69c0-.38-.31-.69-.69-.69ZM4.71,4.71h6.93v14.57h-6.93V4.71ZM19.29,19.29h-6.93V4.71h6.93v14.57Z"/>
        <g>
          <path d="M9.39,9.69v4.61l-2.31-2.31,2.31-2.31M9.69,8.67c-.07,0-.14.03-.2.09l-3.04,3.04c-.11.11-.11.3,0,.41l3.04,3.04c.06.06.13.09.2.09.15,0,.29-.12.29-.29v-6.08c0-.17-.14-.29-.29-.29h0Z"/>
          <path d="M14.61,9.69l2.31,2.31-2.31,2.31v-4.61M14.31,8.67c-.15,0-.29.12-.29.29v6.08c0,.17.14.29.29.29.07,0,.14-.03.2-.09l3.04-3.04c.11-.11.11-.3,0-.41l-3.04-3.04c-.06-.06-.13-.09-.2-.09h0Z"/>
        </g>
      </g>
    </g>
  </g>
</svg>