<?xml version="1.0" encoding="UTF-8"?>
<svg id="Layer_2" xmlns="http://www.w3.org/2000/svg" version="1.1" viewBox="0 0 1247.24 1247.24">
  <!-- Generator: Adobe Illustrator 29.5.1, SVG Export Plug-In . SVG Version: 2.1.0 Build 141)  -->
  <g id="Layer_1-2">
    <g>
      <path d="M392.02,146.83H130.15c-25.65,0-46.53,20.89-46.53,46.57v136.1c0,25.68,20.88,46.57,46.53,46.57h261.86c25.66,0,46.53-20.89,46.53-46.57v-136.1c0-25.68-20.87-46.57-46.53-46.57h.01ZM390.43,327.91H131.74v-132.92h258.69v132.92h0Z"/>
      <path d="M544.94,439.27h160.11c25.66,0,46.53-20.89,46.53-46.57V130.19c0-25.68-20.87-46.57-46.53-46.57h-160.11c-25.66,0-46.53,20.89-46.53,46.57v262.51c0,25.68,20.88,46.57,46.53,46.57h0ZM546.52,131.78h156.93v259.33h-156.93V131.78h0Z"/>
      <path d="M344.07,799.73c25.66,0,46.53-20.89,46.53-46.57v-262.51c0-25.68-20.87-46.57-46.53-46.57h-160.11c-25.66,0-46.53,20.89-46.53,46.57v262.51c0,25.68,20.88,46.57,46.53,46.57h160.11ZM185.55,492.24h156.93v259.33h-156.93v-259.33h0Z"/>
      <path d="M893.92,801.05h184.78c25.66,0,46.53-20.89,46.53-46.57v-234c0-25.68-20.87-46.57-46.53-46.57h-184.78c-25.66,0-46.53,20.89-46.53,46.57v234c0,25.68,20.87,46.57,46.53,46.57h0ZM895.51,522.07h181.6v230.82h-181.6v-230.82Z"/>
      <path d="M711.36,807.97h-172.37c-25.66,0-46.53,20.89-46.53,46.57v262.51c0,25.68,20.87,46.57,46.53,46.57h172.37c25.66,0,46.53-20.89,46.53-46.57v-262.51c0-25.68-20.87-46.57-46.53-46.57h0ZM709.77,1115.46h-169.2v-259.33h169.2v259.33Z"/>
      <path d="M896.89,420.06h178.74c25.66,0,46.53-20.89,46.53-46.57v-243.3c0-25.68-20.87-46.57-46.53-46.57h-178.74c-25.66,0-46.53,20.89-46.53,46.57v243.29c0,25.68,20.87,46.57,46.53,46.57h0ZM898.48,131.78h175.56v240.11h-175.56v-240.11Z"/>
      <path d="M746.01,494.8h-250.41c-25.66,0-46.53,20.89-46.53,46.57v161.07c0,25.68,20.88,46.57,46.53,46.57h250.41c25.66,0,46.53-20.89,46.53-46.57v-161.07c0-25.68-20.87-46.57-46.53-46.57ZM744.42,700.85h-247.24v-157.89h247.24v157.89Z"/>
      <path d="M1117.09,858.69h-261.87c-25.66,0-46.53,20.89-46.53,46.57v161.07c0,25.68,20.87,46.57,46.53,46.57h261.87c25.66,0,46.53-20.89,46.53-46.57v-161.07c0-25.68-20.87-46.57-46.53-46.57ZM1115.5,1064.74h-258.69v-157.89h258.69v157.89Z"/>
      <path d="M392.02,858.69H130.15c-25.66,0-46.53,20.89-46.53,46.57v161.07c0,25.68,20.88,46.57,46.53,46.57h261.86c25.66,0,46.53-20.89,46.53-46.57v-161.07c0-25.68-20.87-46.57-46.53-46.57h.01ZM390.43,1064.74H131.74v-157.89h258.69v157.89Z"/>
    </g>
  </g>
</svg>