<?xml version="1.0" encoding="UTF-8"?>
<svg id="Layer_2" data-name="Layer 2" xmlns="http://www.w3.org/2000/svg" viewBox="0 0 24 24">
  <g id="Layer_1-2" data-name="Layer 1">
    <path fill="#3B82F6" d="M12,0C5.37,0,0,5.37,0,12s5.37,12,12,12,12-5.37,12-12S18.63,0,12,0ZM9.27,18.08h-3.33v-3.33h3.33v3.33ZM9.27,13.66h-3.33v-3.33h3.33v3.33ZM9.27,9.26h-3.33v-3.33h3.33v3.33ZM13.67,18.08h-3.33v-3.33h3.33v3.33ZM13.67,13.66h-3.33v-3.33h3.33v3.33ZM13.67,9.26h-3.33v-3.33h3.33v3.33ZM18.06,18.08h-3.33v-3.33h3.33v3.33ZM18.06,13.66h-3.33v-3.33h3.33v3.33ZM18.06,9.26h-3.33v-3.33h3.33v3.33Z"/>
  </g>
</svg>
