<?xml version="1.0" encoding="UTF-8"?>
<svg id="Layer_2" data-name="Layer 2" xmlns="http://www.w3.org/2000/svg" viewBox="0 0 1080 1080">
  <g id="Layer_1-2" data-name="Layer 1">
    <g>
      <path d="M479.38,0H21.43C9.59,0,0,9.95,0,22.23v455.58c0,12.28,9.59,22.23,21.43,22.23h457.95c11.84,0,21.43-9.95,21.43-22.23V22.23c0-12.28-9.59-22.23-21.43-22.23ZM454.87,452.39H45.93V47.65h408.94v404.74Z"/>
      <path d="M479.38,579.96H21.43c-11.83,0-21.43,9.95-21.43,22.23v455.58c0,12.28,9.59,22.23,21.43,22.23h457.95c11.84,0,21.43-9.95,21.43-22.23v-455.58c0-12.28-9.59-22.23-21.43-22.23ZM454.87,1032.35H45.93v-404.74h408.94v404.74Z"/>
      <path d="M1058.57,0h-457.95c-11.84,0-21.43,9.95-21.43,22.23v455.58c0,12.28,9.59,22.23,21.43,22.23h457.95c11.83,0,21.43-9.95,21.43-22.23V22.23c0-12.28-9.6-22.23-21.43-22.23ZM1034.07,452.39h-408.94V47.65h408.94v404.74Z"/>
      <path d="M1058.57,579.96h-457.95c-11.84,0-21.43,9.95-21.43,22.23v455.58c0,12.28,9.59,22.23,21.43,22.23h457.95c11.83,0,21.43-9.95,21.43-22.23v-455.58c0-12.28-9.6-22.23-21.43-22.23ZM1034.07,1032.35h-408.94v-404.74h408.94v404.74Z"/>
      <g>
        <path d="M311.29,237.31l-106.53-63.99c-4.64-2.78-10.21-2.85-14.9-.19-4.71,2.67-7.52,7.49-7.52,12.9v127.97c0,5.41,2.82,10.24,7.52,12.9,2.3,1.3,4.79,1.95,7.29,1.95s5.24-.71,7.62-2.14l106.52-63.98c4.49-2.71,7.19-7.46,7.19-12.7s-2.69-10-7.19-12.71Z"/>
        <path d="M769.05,326.9c2.3,1.3,4.79,1.95,7.29,1.95s5.24-.71,7.62-2.14l106.52-63.98c4.49-2.71,7.18-7.46,7.18-12.7s-2.69-10-7.18-12.71l-106.53-63.99c-4.64-2.78-10.21-2.85-14.9-.19-4.71,2.67-7.52,7.49-7.52,12.9v127.97c0,5.41,2.82,10.24,7.52,12.9Z"/>
        <path d="M311.29,817.27l-106.52-63.98c-4.65-2.79-10.21-2.86-14.91-.19-4.71,2.66-7.52,7.49-7.52,12.9v127.97c0,5.41,2.81,10.23,7.52,12.9,2.3,1.3,4.79,1.95,7.3,1.95s5.23-.71,7.61-2.13l106.52-63.99c4.49-2.71,7.19-7.46,7.19-12.71s-2.69-10-7.19-12.7Z"/>
        <path d="M890.48,817.27l-106.52-63.98c-4.65-2.79-10.21-2.86-14.91-.19-4.71,2.66-7.52,7.49-7.52,12.9v127.97c0,5.41,2.81,10.23,7.52,12.9,2.3,1.3,4.79,1.95,7.3,1.95s5.23-.71,7.61-2.13l106.52-63.99c4.49-2.71,7.18-7.46,7.18-12.71s-2.69-10-7.18-12.7Z"/>
      </g>
    </g>
  </g>
</svg>